<?xml version="1.0" encoding="iso-8859-1"?>
<!-- Generator: Adobe Illustrator 19.0.0, SVG Export Plug-In . SVG Version: 6.00 Build 0)  -->
<svg xmlns="http://www.w3.org/2000/svg" xmlns:xlink="http://www.w3.org/1999/xlink" version="1.1" id="Capa_1" x="0px" y="0px" viewBox="0 0 491 491" style="enable-background:new 0 0 491 491;" xml:space="preserve">
	<path fill="#FFFFFF" d="M395.5,491c27.4,0,49.8-22.3,49.8-49.8V236.1c0-27.4-22.3-49.8-49.8-49.8h-300c-27.4,0-49.8,22.3-49.8,49.8v205.1     c0,27.4,22.3,49.8,49.8,49.8H395.5z M96.6,255.6c-5.2-4.4-5.8-12.1-1.4-17.3s12.1-5.8,17.3-1.4l133,113L378.6,237     c5.2-4.4,12.9-3.7,17.3,1.4c4.4,5.2,3.7,12.9-1.4,17.3l-95,80.6l95.4,89.8c4.9,4.6,5.2,12.4,0.5,17.3c-2.4,2.6-5.7,3.9-8.9,3.9     c-3,0-6-1.1-8.4-3.3l-97.5-91.7l-27.2,23.1c-2.3,1.9-5.1,2.9-7.9,2.9c-2.8,0-5.6-1-7.9-2.9l-27.2-23.1L112.9,444     c-2.4,2.2-5.4,3.3-8.4,3.3c-3.3,0-6.5-1.3-8.9-3.9c-4.6-4.9-4.4-12.7,0.5-17.3l95.4-89.8L96.6,255.6z"/>
</svg>